<?xml version="1.0" encoding="UTF-8"?>
<svg version="1.1" viewBox="0 0 350 400" xmlns="http://www.w3.org/2000/svg" xmlns:xlink="http://www.w3.org/1999/xlink">
 <defs>
  <filter id="a" color-interpolation-filters="sRGB">
   <feGaussianBlur stdDeviation="3.1142856"/>
  </filter>
  <linearGradient id="ax" x1="1125.4" x2="619.03" y1="527.61" y2="179.8" gradientTransform="matrix(-.36929 0 0 -.36847 283.17 516.34)" gradientUnits="userSpaceOnUse" xlink:href="#aw"/>
  <linearGradient id="aw">
   <stop stop-color="#f9f2c3" offset="0"/>
   <stop stop-color="#e0c616" offset="1"/>
  </linearGradient>
  <linearGradient id="b" x1="1125.4" x2="619.03" y1="527.61" y2="179.8" gradientTransform="matrix(-.42818 0 0 -.42723 744.88 539.27)" gradientUnits="userSpaceOnUse" xlink:href="#aw"/>
  <linearGradient id="ay" x1="-144.71" x2="-23.68" y1="306.02" y2="306.02" gradientTransform="matrix(.81664 1.0119 -1.0119 .81664 561.2 625.06)" gradientUnits="userSpaceOnUse">
   <stop stop-color="#fc0" offset="0"/>
   <stop stop-color="#ffd42a" offset=".22174"/>
   <stop stop-color="#ffe066" offset=".30522"/>
   <stop stop-color="#fea" offset=".5"/>
   <stop stop-color="#ffe684" offset=".61109"/>
   <stop stop-color="#ffd42a" offset=".76849"/>
   <stop stop-color="#fc0" offset="1"/>
  </linearGradient>
  <linearGradient id="cl" x1="114" x2="114" y1="239" y2="273" gradientTransform="matrix(1.7825 .34818 -.47761 1.2994 264.54 154.01)" gradientUnits="userSpaceOnUse">
   <stop stop-color="#030162" offset="0"/>
   <stop stop-color="#284f9c" offset="1"/>
  </linearGradient>
  <linearGradient id="ck" x1="114" x2="114" y1="239" y2="273" gradientTransform="matrix(-1.7825 .34818 .47761 1.2994 494.26 162.57)" gradientUnits="userSpaceOnUse">
   <stop stop-color="#030162" offset="0"/>
   <stop stop-color="#284f9c" offset="1"/>
  </linearGradient>
  <linearGradient id="cj" x1="451" x2="475" y1="27.13" y2="27.13" gradientTransform="matrix(1.6493,0,0,1.6509,-345.3,170.53)" gradientUnits="userSpaceOnUse">
   <stop stop-color="#4765ad" offset="0"/>
   <stop stop-color="#001477" offset="1"/>
  </linearGradient>
  <linearGradient id="ci" x1="451.61" x2="475.61" y1="-155.33" y2="-155.33" gradientTransform="matrix(1.6496,0,0,1.6505,-253.96,289.68)" gradientUnits="userSpaceOnUse">
   <stop stop-color="#4765ad" offset="0"/>
   <stop stop-color="#001477" offset="1"/>
  </linearGradient>
  <linearGradient id="ch" x1="412.01" x2="436.01" y1="-284.43" y2="-284.43" gradientTransform="matrix(1.6501,0,0,1.6501,-159.77,350.53)" gradientUnits="userSpaceOnUse">
   <stop stop-color="#4765ad" offset="0"/>
   <stop stop-color="#001477" offset="1"/>
  </linearGradient>
  <linearGradient id="cg" x1="296.44" x2="320.44" y1="-428.3" y2="-428.3" gradientTransform="matrix(1.6507,0,0,1.6495,-13.586,384.85)" gradientUnits="userSpaceOnUse">
   <stop stop-color="#4765ad" offset="0"/>
   <stop stop-color="#001477" offset="1"/>
  </linearGradient>
  <linearGradient id="cf" x1="151.27" x2="175.27" y1="-512.56" y2="-512.56" gradientTransform="matrix(1.6509,0,0,1.6493,123.72,364.65)" gradientUnits="userSpaceOnUse">
   <stop stop-color="#4765ad" offset="0"/>
   <stop stop-color="#001477" offset="1"/>
  </linearGradient>
  <linearGradient id="ce" x1="-31.719" x2="-7.7187" y1="-539.38" y2="-539.38" gradientTransform="matrix(1.6507,0,0,1.6495,253.87,289.71)" gradientUnits="userSpaceOnUse">
   <stop stop-color="#4765ad" offset="0"/>
   <stop stop-color="#001477" offset="1"/>
  </linearGradient>
  <linearGradient id="cd" x1="-161.5" x2="-137.5" y1="-512.87" y2="-512.87" gradientTransform="matrix(1.6503,0,0,1.6499,326.59,204.34)" gradientUnits="userSpaceOnUse">
   <stop stop-color="#4765ad" offset="0"/>
   <stop stop-color="#001477" offset="1"/>
  </linearGradient>
  <linearGradient id="cc" x1="-320.84" x2="-296.84" y1="-420.05" y2="-420.05" gradientTransform="matrix(1.6497,0,0,1.6505,382.64,65.625)" gradientUnits="userSpaceOnUse">
   <stop stop-color="#4765ad" offset="0"/>
   <stop stop-color="#001477" offset="1"/>
  </linearGradient>
  <linearGradient id="cb" x1="-448.22" x2="-424.22" y1="-241.53" y2="-241.53" gradientTransform="matrix(1.6493,0,0,1.6509,364.4,-114.55)" gradientUnits="userSpaceOnUse">
   <stop stop-color="#4765ad" offset="0"/>
   <stop stop-color="#001477" offset="1"/>
  </linearGradient>
  <linearGradient id="ca" x1="-482" x2="-458" y1="-59.695" y2="-59.695" gradientTransform="matrix(1.6494,0,0,1.6507,292.97,-245.3)" gradientUnits="userSpaceOnUse">
   <stop stop-color="#4765ad" offset="0"/>
   <stop stop-color="#001477" offset="1"/>
  </linearGradient>
  <linearGradient id="bz" x1="-454.41" x2="-430.41" y1="76.252" y2="76.252" gradientTransform="matrix(1.6498,0,0,1.6503,212.6,-321.27)" gradientUnits="userSpaceOnUse">
   <stop stop-color="#4765ad" offset="0"/>
   <stop stop-color="#001477" offset="1"/>
  </linearGradient>
  <linearGradient id="by" x1="-366.2" x2="-342.2" y1="236.3" y2="236.3" gradientTransform="matrix(1.6505,0,0,1.6497,73.652,-378.03)" gradientUnits="userSpaceOnUse">
   <stop stop-color="#4765ad" offset="0"/>
   <stop stop-color="#001477" offset="1"/>
  </linearGradient>
  <linearGradient id="bx" x1="-233.01" x2="-209.01" y1="343.65" y2="343.65" gradientTransform="matrix(1.6508,0,0,1.6493,-65.1,-379.51)" gradientUnits="userSpaceOnUse">
   <stop stop-color="#4765ad" offset="0"/>
   <stop stop-color="#001477" offset="1"/>
  </linearGradient>
  <linearGradient id="bw" x1="-59.362" x2="-35.362" y1="398.7" y2="398.7" gradientTransform="matrix(1.6508,0,0,1.6493,-205.41,-325.8)" gradientUnits="userSpaceOnUse">
   <stop stop-color="#4765ad" offset="0"/>
   <stop stop-color="#001477" offset="1"/>
  </linearGradient>
  <linearGradient id="bv" x1="82.418" x2="106.42" y1="393.38" y2="393.38" gradientTransform="matrix(1.6505,0,0,1.6496,-290.64,-252.86)" gradientUnits="userSpaceOnUse">
   <stop stop-color="#4765ad" offset="0"/>
   <stop stop-color="#001477" offset="1"/>
  </linearGradient>
  <linearGradient id="bu" x1="251.1" x2="275.1" y1="324.03" y2="324.03" gradientTransform="matrix(1.6499,0,0,1.6503,-365.16,-122.61)" gradientUnits="userSpaceOnUse">
   <stop stop-color="#4765ad" offset="0"/>
   <stop stop-color="#001477" offset="1"/>
  </linearGradient>
  <linearGradient id="bt" x1="394.56" x2="418.56" y1="161.34" y2="161.34" gradientTransform="matrix(1.6493,0,0,1.6508,-380.75,57.416)" gradientUnits="userSpaceOnUse">
   <stop stop-color="#4765ad" offset="0"/>
   <stop stop-color="#001477" offset="1"/>
  </linearGradient>
  <linearGradient id="az" x1="345.03" x2="419.33" y1="395.08" y2="487.02" gradientUnits="userSpaceOnUse">
   <stop stop-color="#ffdc55" offset="0"/>
   <stop stop-color="#fff1ba" offset=".49489"/>
   <stop stop-color="#ffdf63" offset="1"/>
  </linearGradient>
  <filter id="av" color-interpolation-filters="sRGB">
   <feGaussianBlur stdDeviation="1.4558416"/>
  </filter>
  <linearGradient id="cm" x1="114" x2="110.98" y1="239" y2="295.58" gradientTransform="matrix(1.7825 .34818 -.47761 1.2994 264.54 154.01)" gradientUnits="userSpaceOnUse">
   <stop stop-color="#640000" offset="0"/>
   <stop stop-color="#ef2929" offset="1"/>
  </linearGradient>
  <linearGradient id="cn" x1="114" x2="115.56" y1="239" y2="309.28" gradientTransform="matrix(-1.7825 .34818 .47761 1.2994 494.26 162.57)" gradientUnits="userSpaceOnUse">
   <stop stop-color="#a40000" offset="0"/>
   <stop stop-color="#ef2929" offset="1"/>
  </linearGradient>
  <linearGradient id="bc" x1="451" x2="475" y1="27.13" y2="27.13" gradientTransform="matrix(1.6493,0,0,1.6509,-345.3,170.53)" gradientUnits="userSpaceOnUse">
   <stop stop-color="#ef2929" offset="0"/>
   <stop stop-color="#a40000" offset="1"/>
  </linearGradient>
  <linearGradient id="bd" x1="451.61" x2="475.61" y1="-155.33" y2="-155.33" gradientTransform="matrix(1.6496,0,0,1.6505,-253.96,289.68)" gradientUnits="userSpaceOnUse">
   <stop stop-color="#ef2929" offset="0"/>
   <stop stop-color="#a40000" offset="1"/>
  </linearGradient>
  <linearGradient id="be" x1="412.01" x2="436.01" y1="-284.43" y2="-284.43" gradientTransform="matrix(1.6501,0,0,1.6501,-159.77,350.53)" gradientUnits="userSpaceOnUse">
   <stop stop-color="#ef2929" offset="0"/>
   <stop stop-color="#a40000" offset="1"/>
  </linearGradient>
  <linearGradient id="bf" x1="296.44" x2="320.44" y1="-428.3" y2="-428.3" gradientTransform="matrix(1.6507,0,0,1.6495,-13.586,384.85)" gradientUnits="userSpaceOnUse">
   <stop stop-color="#ef2929" offset="0"/>
   <stop stop-color="#a40000" offset="1"/>
  </linearGradient>
  <linearGradient id="bg" x1="151.27" x2="175.27" y1="-512.56" y2="-512.56" gradientTransform="matrix(1.6509,0,0,1.6493,123.72,364.65)" gradientUnits="userSpaceOnUse">
   <stop stop-color="#ef2929" offset="0"/>
   <stop stop-color="#a40000" offset="1"/>
  </linearGradient>
  <linearGradient id="bh" x1="-31.719" x2="-7.7187" y1="-539.38" y2="-539.38" gradientTransform="matrix(1.6507,0,0,1.6495,253.87,289.71)" gradientUnits="userSpaceOnUse">
   <stop stop-color="#ef2929" offset="0"/>
   <stop stop-color="#a40000" offset="1"/>
  </linearGradient>
  <linearGradient id="bi" x1="-161.5" x2="-137.5" y1="-512.87" y2="-512.87" gradientTransform="matrix(1.6503,0,0,1.6499,326.59,204.34)" gradientUnits="userSpaceOnUse">
   <stop stop-color="#ef2929" offset="0"/>
   <stop stop-color="#a40000" offset="1"/>
  </linearGradient>
  <linearGradient id="bj" x1="-320.84" x2="-296.84" y1="-420.05" y2="-420.05" gradientTransform="matrix(1.6497,0,0,1.6505,382.64,65.625)" gradientUnits="userSpaceOnUse">
   <stop stop-color="#ef2929" offset="0"/>
   <stop stop-color="#a40000" offset="1"/>
  </linearGradient>
  <linearGradient id="bk" x1="-448.22" x2="-424.22" y1="-241.53" y2="-241.53" gradientTransform="matrix(1.6493,0,0,1.6509,364.4,-114.55)" gradientUnits="userSpaceOnUse">
   <stop stop-color="#ef2929" offset="0"/>
   <stop stop-color="#a40000" offset="1"/>
  </linearGradient>
  <linearGradient id="bl" x1="-482" x2="-458" y1="-59.695" y2="-59.695" gradientTransform="matrix(1.6494,0,0,1.6507,292.97,-245.3)" gradientUnits="userSpaceOnUse">
   <stop stop-color="#ef2929" offset="0"/>
   <stop stop-color="#a40000" offset="1"/>
  </linearGradient>
  <linearGradient id="bm" x1="-454.41" x2="-430.41" y1="76.252" y2="76.252" gradientTransform="matrix(1.6498,0,0,1.6503,212.6,-321.27)" gradientUnits="userSpaceOnUse">
   <stop stop-color="#ef2929" offset="0"/>
   <stop stop-color="#a40000" offset="1"/>
  </linearGradient>
  <linearGradient id="bn" x1="-366.2" x2="-342.2" y1="236.3" y2="236.3" gradientTransform="matrix(1.6505,0,0,1.6497,73.652,-378.03)" gradientUnits="userSpaceOnUse">
   <stop stop-color="#ef2929" offset="0"/>
   <stop stop-color="#a40000" offset="1"/>
  </linearGradient>
  <linearGradient id="bo" x1="-233.01" x2="-209.01" y1="343.65" y2="343.65" gradientTransform="matrix(1.6508,0,0,1.6493,-65.1,-379.51)" gradientUnits="userSpaceOnUse">
   <stop stop-color="#ef2929" offset="0"/>
   <stop stop-color="#a40000" offset="1"/>
  </linearGradient>
  <linearGradient id="bp" x1="-59.362" x2="-35.362" y1="398.7" y2="398.7" gradientTransform="matrix(1.6508,0,0,1.6493,-205.41,-325.8)" gradientUnits="userSpaceOnUse">
   <stop stop-color="#ef2929" offset="0"/>
   <stop stop-color="#a40000" offset="1"/>
  </linearGradient>
  <linearGradient id="bq" x1="82.418" x2="106.42" y1="393.38" y2="393.38" gradientTransform="matrix(1.6505,0,0,1.6496,-290.64,-252.86)" gradientUnits="userSpaceOnUse">
   <stop stop-color="#ef2929" offset="0"/>
   <stop stop-color="#a40000" offset="1"/>
  </linearGradient>
  <linearGradient id="br" x1="251.1" x2="275.1" y1="324.03" y2="324.03" gradientTransform="matrix(1.6499,0,0,1.6503,-365.16,-122.61)" gradientUnits="userSpaceOnUse">
   <stop stop-color="#ef2929" offset="0"/>
   <stop stop-color="#a40000" offset="1"/>
  </linearGradient>
  <linearGradient id="bs" x1="394.56" x2="418.56" y1="161.34" y2="161.34" gradientTransform="matrix(1.6493,0,0,1.6508,-380.75,57.416)" gradientUnits="userSpaceOnUse">
   <stop stop-color="#ef2929" offset="0"/>
   <stop stop-color="#a40000" offset="1"/>
  </linearGradient>
  <linearGradient id="ba" x1="198.02" x2="198.02" y1="69.139" y2="171.19" gradientTransform="matrix(1.7293,0,0,1.731,33.988,161.86)" gradientUnits="userSpaceOnUse">
   <stop stop-color="#818fcc" offset="0"/>
   <stop stop-color="#0e358a" offset="1"/>
  </linearGradient>
  <linearGradient id="bb" x1="251.91" x2="251.91" y1="69.88" y2="178.81" gradientTransform="matrix(1.7293,0,0,1.731,33.988,161.86)" gradientUnits="userSpaceOnUse">
   <stop stop-color="#bac5f3" offset="0"/>
   <stop stop-color="#2e4c95" offset="1"/>
  </linearGradient>
 </defs>
 <g transform="translate(0 -652.36)">
  <g transform="matrix(.90727 0 0 .90727 -38.552 89.712)">
   <g transform="matrix(.70932 0 0 .70932 -86.288 522.88)" enable-background="new">
    <path d="m401.75 492.78-106.95-20.89-85.97 233.9 64.94-20.74 42.01 41.63 85.97-233.9z" fill="url(#cl)"/>
    <path d="m357.05 501.35 106.95-20.89l85.97 233.89-64.94-20.74-42.01 41.64-85.97-233.9z" fill="url(#ck)"/>
    <path d="m377.26 231.19c79.7 0 144.31 64.67 144.31 144.45s-64.61 144.45-144.31 144.45-144.31-64.67-144.31-144.45 64.61-144.45 144.31-144.45" fill="#00025b"/>
    <rect transform="matrix(.99484 .10149 -.10129 .99486 0 0)" x="398.52" y="175.7" width="39.583" height="79.242" fill="url(#cj)"/>
    <rect transform="matrix(.88026 .47449 -.47376 .88066 0 0)" x="491.03" y="-6.3111" width="39.591" height="79.226" fill="url(#ci)"/>
    <rect transform="matrix(.70608 .70813 -.70743 .70678 0 0)" x="520.07" y="-158.4" width="39.602" height="79.204" fill="url(#ch)"/>
    <rect transform="matrix(.38175 .92427 -.924 .3824 0 0)" x="475.74" y="-361.21" width="39.616" height="79.176" fill="url(#cg)"/>
    <rect transform="matrix(.029943 .99955 -.99955 .030002 0 0)" x="373.46" y="-520.28" width="39.622" height="79.165" fill="url(#cf)"/>
    <rect transform="matrix(-.35424 .93516 -.93492 -.35485 0 0)" x="201.52" y="-639.57" width="39.617" height="79.174" fill="url(#ce)"/>
    <rect transform="matrix(-.60863 .79345 -.79287 -.60939 0 0)" x="60.056" y="-681.42" width="39.607" height="79.194" fill="url(#cd)"/>
    <rect transform="matrix(-.86582 .50035 -.49961 -.86625 0 0)" x="-146.64" y="-667.28" width="39.592" height="79.224" fill="url(#cc)"/>
    <rect transform="matrix(-.99846 .055535 -.055426 -.99846 0 0)" x="-374.84" y="-552.9" width="39.582" height="79.243" fill="url(#cb)"/>
    <rect transform="matrix(-.94368 -.33085 .33027 -.94389 0 0)" x="-502.06" y="-383.46" width="39.587" height="79.235" fill="url(#ca)"/>
    <rect transform="matrix(-.80817 -.58895 .58818 -.80873 0 0)" x="-537.1" y="-235.04" width="39.596" height="79.216" fill="url(#bz)"/>
    <rect transform="matrix(-.52155 -.85322 .85276 -.52231 0 0)" x="-530.74" y="-27.808" width="39.611" height="79.186" fill="url(#by)"/>
    <rect transform="matrix(-.18578 -.98259 .98252 -.18614 0 0)" x="-449.75" y="147.7" width="39.62" height="79.167" fill="url(#bx)"/>
    <rect transform="matrix(.20372 -.97903 .97895 .20411 0 0)" x="-303.41" y="292.21" width="39.62" height="79.168" fill="url(#bw)"/>
    <rect transform="matrix(.47708 -.87886 .87846 .47781 0 0)" x="-154.6" y="356.47" width="39.613" height="79.182" fill="url(#bv)"/>
    <rect transform="matrix(.77686 -.62967 .62892 .77747 0 0)" x="49.137" y="372.51" width="39.598" height="79.212" fill="url(#bu)"/>
    <rect transform="matrix(.97856 -.20596 .20556 .97864 0 0)" x="270.01" y="284.14" width="39.584" height="79.24" fill="url(#bt)"/>
    <path d="m377.26 286.49c49.19 0 89.06 39.91 89.06 89.15 0 49.23-39.87 89.15-89.06 89.15s-89.06-39.92-89.06-89.15c0-49.24 39.87-89.15 89.06-89.15" fill="url(#ba)" stroke="url(#bb)" stroke-width="6.6003"/>
   </g>
   <path d="m232.19 851.01a78.69 78.69 0 0 1 -98.84 -122.48 78.69 78.69 0 1 1 98.84 122.48z" enable-background="new" fill="url(#ay)"/>
   <g transform="matrix(.53735 0 0 .53735 -20.993 587.59)" enable-background="new" fill="none">
    <path transform="matrix(-.42377 0 0 -.42283 741.12 537.59)" d="m1162.9 380.93c0 172-139.5 311.43-311.47 311.43-172 0-311.43-139.43-311.43-311.43 0-171.99 139.43-311.42 311.43-311.42 171.97-5e-3 311.47 139.43 311.47 311.42z" enable-background="accumulate" filter="url(#a)" stroke="#e07900" stroke-width="3.6333"/>
    <path d="m246.97 376.52c0-73.48 59.7-133.05 133.35-133.05 73.64 0 133.34 59.57 133.34 133.05s-59.7 133.05-133.34 133.05c-73.65 0-133.35-59.57-133.35-133.05z" enable-background="accumulate" stroke="url(#b)" stroke-width="1.538"/>
   </g>
   <text transform="scale(1.0011 .9989)" x="303.76331" y="935.45679" enable-background="new" fill="#d4aa00" font-family="Swis721 LtEx BT" font-size="2.6907px" stroke="#f1df6c" stroke-width=".26907" text-align="center" text-anchor="middle" style="line-height:125%" line-height="125%" xml:space="preserve">       <tspan x="304.13644" y="935.45679" stroke-width=".26907"/>     </text>
   <g transform="matrix(.53735 0 0 .53735 -20.993 587.59)" enable-background="new" fill="none">
    <path transform="matrix(-.42377 0 0 -.42283 741.12 537.59)" d="m1162.9 380.93c0 172-139.5 311.43-311.47 311.43-172 0-311.43-139.43-311.43-311.43 0-171.99 139.43-311.42 311.43-311.42 171.97-5e-3 311.47 139.43 311.47 311.42z" enable-background="accumulate" filter="url(#a)" stroke="#e07900" stroke-width="3.6333"/>
    <path d="m246.97 376.52c0-73.48 59.7-133.05 133.35-133.05 73.64 0 133.34 59.57 133.34 133.05s-59.7 133.05-133.34 133.05c-73.65 0-133.35-59.57-133.35-133.05z" enable-background="accumulate" stroke="url(#b)" stroke-width="1.538"/>
   </g>
   <g transform="matrix(.68775 0 0 .68775 202.97 530.99)" enable-background="new" fill="none">
    <path transform="matrix(-.36548 0 0 -.36467 281.93 514.9)" d="m1162.9 380.93c0 172-139.5 311.43-311.47 311.43-172 0-311.43-139.43-311.43-311.43 0-171.99 139.43-311.42 311.43-311.42 171.97-5e-3 311.47 139.43 311.47 311.42z" enable-background="accumulate" filter="url(#a)" stroke="#e07900" stroke-width="21.913"/>
    <path d="m-146.26 375.98c0-63.37 51.489-114.75 115.01-114.75 63.513 0 115 51.38 115 114.75 3e-3 63.38-51.487 114.75-115 114.75-63.521 0-115.01-51.37-115.01-114.75z" enable-background="accumulate" stroke="url(#ax)" stroke-width="3.2"/>
   </g>
   <path transform="matrix(.67647 .016053 -.016053 .67647 -62.022 489.57)" d="m458.61 403.34c1.3914 4.0198-41.677 38.983-42.874 43.065-1.1823 4.0312 16.415 56.041 13.064 58.575-3.3931 2.5654-49.954-27.591-54.206-27.468-4.1992 0.12126-48.226 32.929-51.671 30.525-3.4884-2.4343 10.804-56.035 9.3731-60.041-1.413-3.9562-46.22-35.69-44.998-39.71 1.2371-4.0699 56.631-7.0407 59.999-9.6393 3.326-2.5664 19.661-54.987 23.861-55.067 4.253-0.0811 24.196 51.684 27.708 54.083 3.4685 2.3702 58.371 1.7065 59.745 5.6764z" color="#000000" fill="#a06e0a" filter="url(#av)"/>
   <path transform="matrix(.64036 .015197 -.015197 .64036 -48.897 505.55)" d="m458.61 403.34c1.3914 4.0198-41.677 38.983-42.874 43.065-1.1823 4.0312 16.415 56.041 13.064 58.575-3.3931 2.5654-49.954-27.591-54.206-27.468-4.1992 0.12126-48.226 32.929-51.671 30.525-3.4884-2.4343 10.804-56.035 9.3731-60.041-1.413-3.9562-46.22-35.69-44.998-39.71 1.2371-4.0699 56.631-7.0407 59.999-9.6393 3.326-2.5664 19.661-54.987 23.861-55.067 4.253-0.0811 24.196 51.684 27.708 54.083 3.4685 2.3702 58.371 1.7065 59.745 5.6764z" color="#000000" fill="url(#az)" stroke="#ce8314" stroke-width="4.4295"/>
  </g>
  <g transform="matrix(.49154 0 0 .49154 196.52 367.57)">
   <g transform="matrix(.70932 0 0 .70932 -86.288 522.88)" enable-background="new">
    <path d="m401.75 492.78-106.95-20.89-85.97 233.9 64.94-20.74 42.01 41.63 85.97-233.9z" fill="url(#cm)"/>
    <path d="m357.05 501.35 106.95-20.89l85.97 233.89-64.94-20.74-42.01 41.64-85.97-233.9z" fill="url(#cn)"/>
    <path d="m377.26 231.19c79.7 0 144.31 64.67 144.31 144.45s-64.61 144.45-144.31 144.45-144.31-64.67-144.31-144.45 64.61-144.45 144.31-144.45" fill="#620000"/>
    <rect transform="matrix(.99484 .10149 -.10129 .99486 0 0)" x="398.52" y="175.7" width="39.583" height="79.242" fill="url(#bc)"/>
    <rect transform="matrix(.88026 .47449 -.47376 .88066 0 0)" x="491.03" y="-6.3111" width="39.591" height="79.226" fill="url(#bd)"/>
    <rect transform="matrix(.70608 .70813 -.70743 .70678 0 0)" x="520.07" y="-158.4" width="39.602" height="79.204" fill="url(#be)"/>
    <rect transform="matrix(.38175 .92427 -.924 .3824 0 0)" x="475.74" y="-361.21" width="39.616" height="79.176" fill="url(#bf)"/>
    <rect transform="matrix(.029943 .99955 -.99955 .030002 0 0)" x="373.46" y="-520.28" width="39.622" height="79.165" fill="url(#bg)"/>
    <path transform="matrix(-.35424 .93516 -.93492 -.35485 0 0)" d="m201.52-639.57h39.617v79.174h-39.617z" fill="url(#bh)"/>
    <rect transform="matrix(-.60863 .79345 -.79287 -.60939 0 0)" x="60.056" y="-681.42" width="39.607" height="79.194" fill="url(#bi)"/>
    <rect transform="matrix(-.86582 .50035 -.49961 -.86625 0 0)" x="-146.64" y="-667.28" width="39.592" height="79.224" fill="url(#bj)"/>
    <rect transform="matrix(-.99846 .055535 -.055426 -.99846 0 0)" x="-374.84" y="-552.9" width="39.582" height="79.243" fill="url(#bk)"/>
    <rect transform="matrix(-.94368 -.33085 .33027 -.94389 0 0)" x="-502.06" y="-383.46" width="39.587" height="79.235" fill="url(#bl)"/>
    <rect transform="matrix(-.80817 -.58895 .58818 -.80873 0 0)" x="-537.1" y="-235.04" width="39.596" height="79.216" fill="url(#bm)"/>
    <rect transform="matrix(-.52155 -.85322 .85276 -.52231 0 0)" x="-530.74" y="-27.808" width="39.611" height="79.186" fill="url(#bn)"/>
    <rect transform="matrix(-.18578 -.98259 .98252 -.18614 0 0)" x="-449.75" y="147.7" width="39.62" height="79.167" fill="url(#bo)"/>
    <rect transform="matrix(.20372 -.97903 .97895 .20411 0 0)" x="-303.41" y="292.21" width="39.62" height="79.168" fill="url(#bp)"/>
    <rect transform="matrix(.47708 -.87886 .87846 .47781 0 0)" x="-154.6" y="356.47" width="39.613" height="79.182" fill="url(#bq)"/>
    <rect transform="matrix(.77686 -.62967 .62892 .77747 0 0)" x="49.137" y="372.51" width="39.598" height="79.212" fill="url(#br)"/>
    <rect transform="matrix(.97856 -.20596 .20556 .97864 0 0)" x="270.01" y="284.14" width="39.584" height="79.24" fill="url(#bs)"/>
    <path d="m377.26 286.49c49.19 0 89.06 39.91 89.06 89.15 0 49.23-39.87 89.15-89.06 89.15s-89.06-39.92-89.06-89.15c0-49.24 39.87-89.15 89.06-89.15" fill="url(#ba)" stroke="url(#bb)" stroke-width="6.6003"/>
   </g>
   <path d="m232.19 851.01a78.69 78.69 0 0 1 -98.84 -122.48 78.69 78.69 0 1 1 98.84 122.48z" enable-background="new" fill="url(#ay)"/>
   <g transform="matrix(.53735 0 0 .53735 -20.993 587.59)" enable-background="new" fill="none">
    <path transform="matrix(-.42377 0 0 -.42283 741.12 537.59)" d="m1162.9 380.93c0 172-139.5 311.43-311.47 311.43-172 0-311.43-139.43-311.43-311.43 0-171.99 139.43-311.42 311.43-311.42 171.97-5e-3 311.47 139.43 311.47 311.42z" enable-background="accumulate" filter="url(#a)" stroke="#e07900" stroke-width="3.6333"/>
    <path d="m246.97 376.52c0-73.48 59.7-133.05 133.35-133.05 73.64 0 133.34 59.57 133.34 133.05s-59.7 133.05-133.34 133.05c-73.65 0-133.35-59.57-133.35-133.05z" enable-background="accumulate" stroke="url(#b)" stroke-width="1.538"/>
   </g>
   <text transform="scale(1.0011 .9989)" x="303.76331" y="935.45679" enable-background="new" fill="#d4aa00" font-family="Swis721 LtEx BT" font-size="2.6907px" stroke="#f1df6c" stroke-width=".26907" text-align="center" text-anchor="middle" style="line-height:125%" line-height="125%" xml:space="preserve">       <tspan x="304.13644" y="935.45679" stroke-width=".26907"/>     </text>
   <g transform="matrix(.53735 0 0 .53735 -20.993 587.59)" enable-background="new" fill="none">
    <path transform="matrix(-.42377 0 0 -.42283 741.12 537.59)" d="m1162.9 380.93c0 172-139.5 311.43-311.47 311.43-172 0-311.43-139.43-311.43-311.43 0-171.99 139.43-311.42 311.43-311.42 171.97-5e-3 311.47 139.43 311.47 311.42z" enable-background="accumulate" filter="url(#a)" stroke="#e07900" stroke-width="3.6333"/>
    <path d="m246.97 376.52c0-73.48 59.7-133.05 133.35-133.05 73.64 0 133.34 59.57 133.34 133.05s-59.7 133.05-133.34 133.05c-73.65 0-133.35-59.57-133.35-133.05z" enable-background="accumulate" stroke="url(#b)" stroke-width="1.538"/>
   </g>
   <g transform="matrix(.68775 0 0 .68775 202.97 530.99)" enable-background="new" fill="none">
    <path transform="matrix(-.36548 0 0 -.36467 281.93 514.9)" d="m1162.9 380.93c0 172-139.5 311.43-311.47 311.43-172 0-311.43-139.43-311.43-311.43 0-171.99 139.43-311.42 311.43-311.42 171.97-5e-3 311.47 139.43 311.47 311.42z" enable-background="accumulate" filter="url(#a)" stroke="#e07900" stroke-width="21.913"/>
    <path d="m-146.26 375.98c0-63.37 51.489-114.75 115.01-114.75 63.513 0 115 51.38 115 114.75 3e-3 63.38-51.487 114.75-115 114.75-63.521 0-115.01-51.37-115.01-114.75z" enable-background="accumulate" stroke="url(#ax)" stroke-width="3.2"/>
   </g>
   <path transform="matrix(.67647 .016053 -.016053 .67647 -62.022 489.57)" d="m458.61 403.34c1.3914 4.0198-41.677 38.983-42.874 43.065-1.1823 4.0312 16.415 56.041 13.064 58.575-3.3931 2.5654-49.954-27.591-54.206-27.468-4.1992 0.12126-48.226 32.929-51.671 30.525-3.4884-2.4343 10.804-56.035 9.3731-60.041-1.413-3.9562-46.22-35.69-44.998-39.71 1.2371-4.0699 56.631-7.0407 59.999-9.6393 3.326-2.5664 19.661-54.987 23.861-55.067 4.253-0.0811 24.196 51.684 27.708 54.083 3.4685 2.3702 58.371 1.7065 59.745 5.6764z" color="#000000" fill="#a06e0a" filter="url(#av)"/>
   <path transform="matrix(.64036 .015197 -.015197 .64036 -48.897 505.55)" d="m458.61 403.34c1.3914 4.0198-41.677 38.983-42.874 43.065-1.1823 4.0312 16.415 56.041 13.064 58.575-3.3931 2.5654-49.954-27.591-54.206-27.468-4.1992 0.12126-48.226 32.929-51.671 30.525-3.4884-2.4343 10.804-56.035 9.3731-60.041-1.413-3.9562-46.22-35.69-44.998-39.71 1.2371-4.0699 56.631-7.0407 59.999-9.6393 3.326-2.5664 19.661-54.987 23.861-55.067 4.253-0.0811 24.196 51.684 27.708 54.083 3.4685 2.3702 58.371 1.7065 59.745 5.6764z" color="#000000" fill="url(#az)" stroke="#ce8314" stroke-width="4.4295"/>
  </g>
 </g>
</svg>
