<?xml version="1.0" encoding="UTF-8"?>
<svg viewBox="0 0 289.07 164.76" xmlns="http://www.w3.org/2000/svg">
 <defs>
  <linearGradient id="a" x1=".5" x2=".5" y1=".85562" y2=".074866">
   <stop stop-color="#fff" offset="0"/>
   <stop stop-color="#a0ddf9" offset="1"/>
  </linearGradient>
 </defs>
 <path d="m298.57 157.37c0 6.1574-5.0306 11.149-11.236 11.149h-285.6c-6.2059 0-11.236-4.9924-11.236-11.149v-151.44c0-6.1564 5.0306-11.149 11.236-11.149h285.6c6.2058 0 11.236 4.9924 11.236 11.149v151.44h3.1e-5z" fill="url(#a)"/>
 <circle cx="147.31" cy="44.688" r="13.321" fill="#723c1a" stroke="#72584b"/>
 <g stroke="#808284">
  <rect x="141.45" y="69.497" width="11.717" height="4.607" fill="#ebc19c"/>
  <path d="m122.02 79.913c-4.223 5.609 0 27.442 0 27.442h25.456v-33.251c1.5e-5 0-21.233 0.201-25.456 5.809zm50.913 0c-4.225-5.608-25.457-5.809-25.457-5.809v33.251h25.457s4.222-21.833 0-27.442z" fill="#e0f3fd"/>
 </g>
 <path d="m123.85 81.884c-3.92 5.205 0 25.471 0 25.471h23.628v-30.863c0.001007 0-19.707 0.186-23.628 5.392zm47.258 0c-3.92-5.206-23.629-5.393-23.629-5.393v30.864h23.629s3.919-20.266 0-25.471z" fill="#fff"/>
 <path d="m153.32 69.497s-1.368 2.304-6.009 2.304c-4.64 0-6.009-2.304-6.009-2.304s-6.01-1.152-6.01-7.036v-10.738s-0.18201-6.854 1.336-8.371c0 1.907 3.104 2.904 3.104 2.904s1.636-5.275 6.544-5.275c-1.103 3.075 6.51 4.808 6.51 4.808s2.604-4.938 4.606-4.437 1.937 10.371 1.937 10.371v10.738c0.001007 6.135-6.009 7.036-6.009 7.036z" fill="#ebc19c" stroke="#72584b"/>
 <path d="m152.42 67.532s-1.163 1.958-5.108 1.958c-3.943 0-5.107-1.958-5.107-1.958s-5.107-0.979-5.107-5.981v-9.126s-0.518-5.827 0.771-7.116c0 1.62 3.002 2.468 3.002 2.468s1.391-4.483 5.563-4.483c-0.938 2.614 5.533 4.086 5.533 4.086s2.213-4.197 3.916-3.771 1.646 8.816 1.646 8.816v9.126c-0.001007 5.215-5.109 5.981-5.109 5.981z" fill="#f0d0b4"/>
 <rect transform="matrix(.7071 -.7071 .7071 .7071 -13.744 122.04)" x="142.83" y="79.997" width="5.124" height="5.124"/>
 <polygon points="151.06 103.15 147.44 106.77 143.82 103.15 147.44 80.596"/>
 <g fill="#e0f3fd" stroke="#808284">
  <path d="m147.37 74.554s-4.657-4.988-6.694-3.218c-2.035 1.771 0.785 8.175 0.785 8.175l5.909-4.957z"/>
  <path d="m147.69 74.554s4.657-4.988 6.693-3.218c2.037 1.771-0.784 8.175-0.784 8.175l-5.909-4.957z"/>
 </g>
 <g fill="#fff">
  <path d="m147.4 74.642s-4.055-4.344-5.828-2.802 0.014999 7.384 0.014999 7.384l5.813-4.582z"/>
  <path d="m147.67 74.642s4.056-4.344 5.829-2.802 0.024994 7.431 0.024994 7.431l-5.854-4.629z"/>
 </g>
 <path d="m144.97 58.28s3.905 1.502 3.905-0.4c0-1.903-0.601-8.814-0.601-8.814s3.806 9.415 2.504 10.717c-1.302 1.301-4.707 2.804-5.808-1.503z" fill="#ebc19c"/>
 <g stroke="#937952">
  <ellipse cx="143.3" cy="123.08" rx="138.11" ry="28.492" fill="#490e00"/>
  <ellipse cx="143.3" cy="118.08" rx="138.11" ry="28.492" fill="#77562f"/>
 </g>
 <path d="m125.25 96.49s-158.55 12.746-70.254 30.246c88.297 17.5 115 6.123 115 6.123s-146.48-9.376-44.746-36.369z" fill="#a8916d"/>
 <rect x="139.54" y="118.37" width="12.471" height="5.5837" fill="#ebc19c" stroke="#808284"/>
 <path d="m127.12 133.39c-2.9577 6.3094 0 30.872 0 30.872h17.83v-37.409c3.1e-5 9.84e-4 -14.871 0.22713-17.83 6.5365zm35.66 0c-2.9584-6.3094-17.83-6.5355-17.83-6.5355v37.409h17.83c0 1.5e-5 2.9571-24.564 0-30.873z" fill="#003f7f"/>
 <path d="m152.17 118.37s-1.4573 2.7924-6.3956 2.7924-6.3956-2.7924-6.3956-2.7924-6.3956-1.3962-6.3956-8.5275v-13.014s-0.19339-8.3073 1.421-10.146c0 2.3116 3.3049 3.52 3.3049 3.52s1.7414-6.3929 6.9637-6.3929c-1.1724 3.7274 6.9283 5.8276 6.9283 5.8276s2.7704-5.9849 4.9029-5.3772c2.1316 0.60764 2.0608 12.57 2.0608 12.57v13.014c8.7e-4 7.4342-6.3948 8.5265-6.3948 8.5265z" fill="#ebc19c" stroke="#72584b"/>
 <path d="m151.21 115.99s-1.238 2.3735-5.4364 2.3735c-4.1976 0-5.4365-2.3735-5.4365-2.3735s-5.4356-1.1868-5.4356-7.2493v-11.061s-0.55081-7.0625 0.8219-8.6248c0 1.9635 3.1944 2.9919 3.1944 2.9919s1.4806-5.4343 5.9199-5.4343c-0.99716 3.168 5.8897 4.9535 5.8897 4.9535s2.3552-5.0872 4.1674-4.571 1.7517 10.686 1.7517 10.686v11.061c8.54e-4 6.3192-5.4365 7.2484-5.4365 7.2484z" fill="#f0d0b4"/>
 <path d="m143.29 104.78s4.157 1.8209 4.157-0.48572-0.63974-10.683-0.63974-10.683 4.0508 11.41 2.6651 12.989c-1.3865 1.5781-5.01 3.399-6.1824-1.8209z" fill="#ebc19c"/>
 <path d="m159.95 89.4c0 6.1312-6.3481 20.67-14.178 20.67-7.8287 0-14.176-14.539-14.176-20.67 0-6.1312 6.3473-11.102 14.176-11.102 7.8305 0 14.178 4.9711 14.178 11.102z" fill="#eded6f" stroke="#fff"/>
 <path d="m153.84 124.06c0 1.8239-1.2984 3.3017-2.9 3.3017h-10.314c-1.6015 0-2.9-1.4778-2.9-3.3017s1.2985-3.3026 2.9-3.3026h10.314c1.6006 0 2.8991 1.4788 2.8991 3.3026z" fill="#e0f3fd" stroke="#808284"/>
 <path d="m153.62 124.93c0 1.058-1.2622 1.9163-2.8188 1.9163h-10.025c-1.5566 0-2.8188-0.85834-2.8188-1.9163 0-1.0589 1.2622-1.9163 2.8188-1.9163h10.025c1.5566 0 2.8188 0.85835 2.8188 1.9163z" fill="#fff"/>
 <rect transform="rotate(6.4674 203.94 125.53)" x="197.75" y="122.8" width="12.367" height="5.4414" fill="#ebc19c" stroke="#808284"/>
 <path transform="rotate(6.4674 201.43 149.16)" d="m183.01 139.4c-4.137 6.1485-6.5168 27.99-6.5168 27.99l24.713-1.9872 0.2253-34.468c3.1e-5 9.61e-4 -14.284 2.3166-18.421 8.4652zm38.544 1.796c-4.1378-6.1485-20.121-10.26-20.121-10.26l-0.2253 34.468 25.152-3.1872c-0.57925-5.11-0.66922-14.872-4.8053-21.021z" fill="#00bfbf"/>
 <path transform="rotate(6.4674 205.98 107.44)" d="m212.33 122.92s-1.4452 2.7212-6.3424 2.7212-6.3424-2.7212-6.3424-2.7212-6.3424-1.3606-6.3424-8.3102v-12.682s-0.19177-8.0955 1.4092-9.8873c0 2.2526 3.2774 3.4302 3.2774 3.4302s1.7269-6.23 6.9058-6.23c-1.1627 3.6324 6.8706 5.679 6.8706 5.679s2.7474-5.8323 4.8621-5.2402c2.1139 0.59214 2.0436 12.249 2.0436 12.249v8.3102" fill="#ebc19c" stroke="#72584b"/>
 <path transform="rotate(6.4674 204.61 109.09)" d="m210.62 123.78s-1.3561 2.5815-5.955 2.5815c-4.598 0-5.9551-2.5815-5.9551-2.5815s-5.9541-1.2908-5.9541-7.8846v-12.031s-0.60335-7.6814 0.90031-9.3807c0 2.1356 3.4991 3.2542 3.4991 3.2542s1.6219-5.9106 6.4846-5.9106c-1.0923 3.4456 6.4515 5.3876 6.4515 5.3876s2.5799-5.533 4.5649-4.9716c1.985 0.56146 1.9188 11.622 1.9188 11.622v12.031c9.46e-4 6.873-5.9551 7.8836-5.9551 7.8836z" fill="#bf5f00"/>
 <path transform="rotate(6.4674 206.9 106.01)" d="m203.69 109.76s4.1224 1.7745 4.1224-0.47334c0-2.2479-0.63442-10.41-0.63442-10.41s4.0171 11.12 2.6429 12.658c-1.375 1.5379-4.9683 3.3124-6.1309-1.7745z" fill="#ebc19c"/>
 <path transform="rotate(6.4674 206.61 99.472)" d="m220.67 102.29c0 10.222-6.5788 10.165-14.343 10.165-7.7639 0-13.776 0.056694-13.776-10.165s4.5955-15.339 12.358-15.339c3.8834 0 5.4142 7.0013 11.642 2.2525 6.2281-4.7488 2.3007 3.6688 3.0127 5.8831" fill="#0f0702" opacity=".75" stroke="#fff"/>
 <path transform="rotate(6.4674 203.63 128.33)" d="m211.62 128.33c0 1.7774-1.2877 3.2175-2.8758 3.2175h-10.228c-1.5882 0-2.8758-1.4401-2.8758-3.2175s1.2877-3.2185 2.8758-3.2185h10.228c1.5873 0 2.875 1.4411 2.875 3.2185z" fill="#e0f3fd" stroke="#808284"/>
 <path transform="rotate(6.4674 203.14 129.62)" d="m211.53 128.84c0 1.0309 2.1486 5.4588-2.7946 1.8669h-9.9416c-1.544 0-7.3291 4.552-2.7956-1.8669 0-1.0319 1.2515-1.8679 2.7956-1.8679h9.9416c1.5431 0 2.7946 0.83705 2.7946 1.8679z" fill="#fff"/>
 <g stroke="#808284">
  <rect x="252.64" y="123.28" width="10.327" height="4.8649" fill="#ebc19c"/>
  <path d="m235.52 134.28c-3.722 5.9237 0 28.98 0 28.98h22.436v-35.114c3.1e-5 0-18.713 0.21159-22.436 6.1335zm44.872 0c-3.7227-5.9228-22.436-6.1344-22.436-6.1344v35.114h22.436c0 8.7e-4 3.7213-23.056 0-28.979z" fill="#e0f3fd"/>
 </g>
 <path d="m237.13 136.36c-3.4546 5.4971 0 26.898 0 26.898h20.825v-32.593c3.1e-5 8.7e-4 -17.37 0.19788-20.825 5.6949zm41.651 0c-3.4554-5.497-20.825-5.6941-20.825-5.6941v32.592h20.825c0 3.1e-5 3.4539-21.401 0-26.898z" fill="#07934b"/>
 <path d="m263.1 123.28s-1.2068 2.4329-5.2963 2.4329-5.2963-2.4329-5.2963-2.4329-5.2964-1.2164-5.2964-7.4296v-11.338s-0.16016-7.2377 1.1768-8.8397c0 2.014 2.7368 3.0668 2.7368 3.0668s1.442-5.5699 5.7668-5.5699c-0.9709 3.2475 5.7375 5.0773 5.7375 5.0773s2.2943-5.2144 4.0602-4.685c1.7652 0.5294 1.7066 10.951 1.7066 10.951v11.338c6.71e-4 6.4771-5.2956 7.4288-5.2956 7.4288z" fill="#ebc19c" stroke="#72584b"/>
 <path d="m262.31 121.2s-1.0252 2.0679-4.502 2.0679c-3.4761 0-4.502-2.0679-4.502-2.0679s-4.5013-1.034-4.5013-6.316v-9.6371s-0.45613-6.1532 0.68065-7.5144c0 1.7107 2.6453 2.6067 2.6453 2.6067s1.2261-4.7347 4.9024-4.7347c-0.82578 2.7601 4.8774 4.3158 4.8774 4.3158s1.9504-4.4322 3.4511-3.9825c1.5006 0.44975 1.4506 9.31 1.4506 9.31v9.6371c7.02e-4 5.5056-4.502 6.3152-4.502 6.3152z" fill="#f0d0b4"/>
 <path d="m255.75 111.43s3.4424 1.5865 3.4424-0.42319-0.52976-9.3074-0.52976-9.3074 3.3546 9.9413 2.2071 11.317c-1.1482 1.3749-4.1489 2.9614-5.1198-1.5865z" fill="#ebc19c"/>
 <path d="m269.55 97.081c0 7.7688 15.6 64.191-11.741 63.334-27.341-0.85713-11.739-55.565-11.739-63.334 0-7.7689 5.2563-14.067 11.739-14.067 6.4846 0 11.741 6.2989 11.741 14.067z" fill="#723c1a" stroke="#fff"/>
 <rect x="80.541" y="121.57" width="12.471" height="5.194" fill="#ebc19c" stroke="#808284"/>
 <path d="m61.767 134.4c-4.0834 5.869 0 28.718 0 28.718h24.615v-34.798c3.1e-5 9.16e-4 -20.531 0.21127-24.615 6.0802zm49.231 0c-4.0842-5.869-24.615-6.0793-24.615-6.0793v34.798h24.615c0 1.5e-5 4.0825-22.849 0-28.718z" fill="#faf"/>
 <path d="m94.672 121.57s-1.7014 2.5975-7.4668 2.5975-7.4668-2.5975-7.4668-2.5975-7.4668-1.2987-7.4668-7.9323v-12.106s-0.22578-7.7274 1.659-9.4377c0 2.1502 3.8584 3.2743 3.8584 3.2743s2.033-5.9467 8.13-5.9467c-1.3688 3.4672 8.0886 5.4208 8.0886 5.4208s3.2344-5.5672 5.724-5.0019c2.4886 0.56522 2.4059 11.692 2.4059 11.692v12.106c0.001015 6.9153-7.4658 7.9314-7.4658 7.9314z" fill="#6d4828" stroke="#72584b"/>
 <path d="m92.212 119.36s-1.238 2.2078-5.4364 2.2078c-4.1976 0-5.4365-2.2078-5.4365-2.2078s-5.4356-1.1039-5.4356-6.7433v-10.289s-0.55081-6.5696 0.8219-8.0228c0 1.8264 3.1944 2.7831 3.1944 2.7831s1.4806-5.055 5.9199-5.055c-0.99715 2.9468 5.8897 4.6078 5.8897 4.6078s2.3552-4.7321 4.1673-4.252c1.8122 0.48018 1.7517 9.9399 1.7517 9.9399v10.289c8.54e-4 5.8781-5.4365 6.7424-5.4365 6.7424z" fill="#f0d0b4"/>
 <path d="m84.289 108.93s4.157 1.6938 4.157-0.45181-0.63974-9.9371-0.63974-9.9371 4.0508 10.614 2.6651 12.083c-1.3865 1.4679-5.01 3.1618-6.1824-1.6938z" fill="#ebc19c"/>
 <path d="m101.52 99.029c0 9.3972-6.3481 31.681-14.178 31.681-7.8287 0-14.176-22.283-14.176-31.681 0-9.3972 6.3473-17.015 14.176-17.015 7.8305 0 14.178 7.6191 14.178 17.015z" stroke="#fff"/>
 <ellipse cx="28.644" cy="90.955" rx="14.286" ry="24" fill="#ebc19c" opacity=".75" stroke="#72584b"/>
 <g stroke="#808284">
  <rect transform="rotate(-.29473 28.471 116.91)" x="22.233" y="113.86" width="12.471" height="6.0922" fill="#ebc19c"/>
  <path transform="rotate(-.29473 28.775 141.94)" d="m1.6821 127.63c-4.4945 7.4181 0 36.291 0 36.291h27.092v-43.972c3.1e-5 0-22.597 0.26497-27.092 7.6809zm54.186 0c-4.4954-7.417-27.092-7.682-27.092-7.682v43.972h27.092c0 0.001068 4.4937-28.872 0-36.29z" fill="#e0f3fd"/>
 </g>
 <path transform="rotate(-.29473 28.783 143.85)" d="m3.637 130.57c-4.1716 6.8839 0 33.684 0 33.684h25.147v-40.815c3.1e-5 0.001076-20.975 0.24781-25.147 7.1317zm50.296 0c-4.1725-6.8839-25.147-7.1306-25.147-7.1306v40.815h25.147c0 3.1e-5 4.1708-26.801 0-33.684z" fill="#4c4c4c"/>
 <path transform="rotate(-.29473 29.103 94.818)" d="m25.867 99.023s4.157 1.9868 4.157-0.52994-0.63974-11.656-0.63974-11.656 4.0508 12.449 2.6651 14.172c-1.3865 1.7218-5.01 3.7085-6.1824-1.9868z" fill="#ebc19c"/>
 <path transform="rotate(-.29473 28.718 91.666)" d="m43.324 88.348c0 10.396-6.4522 12.64-14.519 12.64-8.0654 0-14.692-2.2441-14.692-12.64s7.0703-4.139 15.136-4.139c8.0673 0 14.075-6.2561 14.075 4.139z" fill="#723c1a" stroke="#fff"/>
 <path transform="rotate(-.29473 28.495 120.06)" d="m36.55 120.06c0 1.99-1.2984 3.6023-2.9 3.6023h-10.314c-1.6015 0-2.9-1.6123-2.9-3.6023s1.2985-3.6034 2.9-3.6034h10.314c1.6006 0 2.8991 1.6134 2.8991 3.6034z" fill="#e0f3fd" stroke="#808284"/>
 <path transform="rotate(-.29473 28.498 121.02)" d="m36.33 121.02c0 1.1543-1.2622 2.0908-2.8188 2.0908h-10.025c-1.5566 0-2.8188-0.9365-2.8188-2.0908 0-1.1554 1.2622-2.0908 2.8188-2.0908h10.025c1.5566 0 2.8188 0.93652 2.8188 2.0908z" fill="#fff"/>
</svg>
